<svg width="170" height="170" viewBox="0 0 170 170" fill="none" xmlns="http://www.w3.org/2000/svg">
<path d="M85 170C131.944 170 170 131.944 170 85C170 38.0558 131.944 0 85 0C38.0558 0 0 38.0558 0 85C0 100.579 4.1914 115.18 11.5081 127.735C15.95 135.358 26 131.473 26 122.651V24H144V102C144 119.673 129.673 134 112 134H53.7293C49.4605 134 46 137.461 46 141.729C46 153.287 52.3474 164.355 63.5325 167.266C70.3899 169.05 77.584 170 85 170Z" fill="black"/>
<path d="M50 59.5C50 55.3579 53.3579 52 57.5 52H112.5C116.642 52 120 55.3579 120 59.5C120 63.6421 116.642 67 112.5 67H57.5C53.3579 67 50 63.6421 50 59.5Z" fill="black"/>
<path d="M50 79.5C50 75.3579 53.3579 72 57.5 72H96.5C100.642 72 104 75.3579 104 79.5C104 83.6421 100.642 87 96.5 87H57.5C53.3579 87 50 83.6421 50 79.5Z" fill="black"/>
<path d="M50 99.5C50 95.3579 53.3579 92 57.5 92H82.5C86.6421 92 90 95.3579 90 99.5C90 103.642 86.6421 107 82.5 107H57.5C53.3579 107 50 103.642 50 99.5Z" fill="black"/>
<path d="M110 99.5C110 103.642 106.642 107 102.5 107C98.3579 107 95 103.642 95 99.5C95 95.3579 98.3579 92 102.5 92C106.642 92 110 95.3579 110 99.5Z" fill="black"/>
</svg>
