<svg width="120" height="120" viewBox="0 0 120 120" fill="none" xmlns="http://www.w3.org/2000/svg">
<path d="M100 19C102.761 19 105 21.2386 105 24V94C105 96.7614 102.761 99 100 99C97.2386 99 95 96.7614 95 94V24C95 21.2386 97.2386 19 100 19Z" fill="black"/>
<path d="M115 30C117.761 30 120 32.2386 120 35V85C120 87.7614 117.761 90 115 90C112.239 90 110 87.7614 110 85V35C110 32.2386 112.239 30 115 30Z" fill="black"/>
<path fill-rule="evenodd" clip-rule="evenodd" d="M24 0C10.7451 0 0 10.7451 0 24V96C0 109.255 10.7451 120 24 120H66C79.2549 120 90 109.255 90 96V24C90 10.7451 79.2549 0 66 0H24ZM70 40C72.7615 40 75 37.7615 75 35C75 32.2385 72.7615 30 70 30H20C17.2385 30 15 32.2385 15 35C15 37.7615 17.2385 40 20 40H70ZM56 60C56 62.7615 53.7615 65 51 65H20C17.2385 65 15 62.7615 15 60C15 57.2385 17.2385 55 20 55H51C53.7615 55 56 57.2385 56 60ZM34 90C36.7615 90 39 87.7615 39 85C39 82.2385 36.7615 80 34 80H20C17.2385 80 15 82.2385 15 85C15 87.7615 17.2385 90 20 90H34Z" fill="black"/>
</svg>
